PathFileType	4	(X/Y/Z)	c:/Users/goper/Files/vsCode/490R/osim_files/C03/C03_Slow_03.trc
DataRate	CameraRate	NumFrames	NumMarkers	Units                	OrigDataRate	OrigDataStartFrame	OrigNumFrames
250.00	250.00	10	36	mm	250.0	911	2429
                Frame#	Time	LPSIS			LASIS			LTH1			LTH2			LTH3			LTH4			LLFE			LMFE			LSH1			LSH2			LSH3			LSH4			LLMAL			LMMAL			LCAL			LMTP5			LTOE			LMTP1			RPSIS			RASIS			RTH1			RTH2			RTH3			RTH4			RLFE			RMFE			RSH1			RSH2			RSH3			RSH4			RLMAL			RMMAL			RCAL			RMTP1			RTOE			RMTP5		
		X1	Y1	Z1	X2	Y2	Z2	X3	Y3	Z3	X4	Y4	Z4	X5	Y5	Z5	X6	Y6	Z6	X7	Y7	Z7	X8	Y8	Z8	X9	Y9	Z9	X10	Y10	Z10	X11	Y11	Z11	X12	Y12	Z12	X13	Y13	Z13	X14	Y14	Z14	X15	Y15	Z15	X16	Y16	Z16	X17	Y17	Z17	X18	Y18	Z18	X19	Y19	Z19	X20	Y20	Z20	X21	Y21	Z21	X22	Y22	Z22	X23	Y23	Z23	X24	Y24	Z24	X25	Y25	Z25	X26	Y26	Z26	X27	Y27	Z27	X28	Y28	Z28	X29	Y29	Z29	X30	Y30	Z30	X31	Y31	Z31	X32	Y32	Z32	X33	Y33	Z33	X34	Y34	Z34	X35	Y35	Z35	X36	Y36	Z36

911	3.64000	2026.86133	1050.48145	327.21854	0.00000	0.00000	0.00000	1991.56250	644.34888	395.37720	1992.68884	583.54358	385.84625	0.00000	0.00000	0.00000	0.00000	0.00000	0.00000	1982.52026	497.73801	371.64319	1979.49426	496.61688	257.29276	0.00000	0.00000	0.00000	2000.73389	318.88452	374.27020	0.00000	0.00000	0.00000	2002.65112	264.50070	362.30170	0.00000	0.00000	0.00000	0.00000	0.00000	0.00000	0.00000	0.00000	0.00000	1883.82483	56.72749	337.17188	1856.77332	75.90920	282.86377	1878.46423	65.28119	241.75648	2023.61255	1039.86938	214.04808	1852.41260	999.84784	159.16417	1977.33765	627.13409	430.32281	0.00000	0.00000	0.00000	0.00000	0.00000	0.00000	0.00000	0.00000	0.00000	0.00000	0.00000	0.00000	1725.57324	542.24664	243.98839	1952.65735	474.58176	123.84350	0.00000	0.00000	0.00000	0.00000	0.00000	0.00000	0.00000	0.00000	0.00000	0.00000	0.00000	0.00000	1869.67859	167.13708	207.57613	1969.66516	155.79034	177.41608	1779.20593	72.30196	187.15181	1750.37390	87.49971	148.68942	1818.96130	79.23196	88.09697
912	3.64400	2022.68018	1050.25183	327.10886	0.00000	0.00000	0.00000	1988.86768	644.40070	395.15814	1990.31165	583.65955	385.64798	0.00000	0.00000	0.00000	0.00000	0.00000	0.00000	1980.37207	497.67471	371.44849	1977.17773	496.56522	257.18497	0.00000	0.00000	0.00000	0.00000	0.00000	0.00000	0.00000	0.00000	0.00000	2001.53528	264.71240	362.12592	0.00000	0.00000	0.00000	0.00000	0.00000	0.00000	0.00000	0.00000	0.00000	1883.65491	56.59275	337.09125	1856.68408	75.82303	282.92053	1878.23730	65.16290	241.77313	2019.17273	1039.74377	213.95573	1847.74646	999.74023	159.45282	1974.79199	627.15308	430.13446	0.00000	0.00000	0.00000	0.00000	0.00000	0.00000	0.00000	0.00000	0.00000	0.00000	0.00000	0.00000	1720.51733	542.29718	244.93985	1945.71619	474.92142	124.64766	0.00000	0.00000	0.00000	0.00000	0.00000	0.00000	0.00000	0.00000	0.00000	0.00000	0.00000	0.00000	1855.57227	164.08475	207.85716	0.00000	0.00000	0.00000	1762.69592	71.74178	186.53140	1735.12573	87.12679	148.13661	1803.08948	77.62521	87.80997
913	3.64800	2018.49780	1050.03674	326.97299	0.00000	0.00000	0.00000	1986.29480	644.56476	394.96185	1987.85181	583.75629	385.44000	0.00000	0.00000	0.00000	0.00000	0.00000	0.00000	1978.41760	497.75543	371.23547	1975.09937	496.67694	256.97983	0.00000	0.00000	0.00000	1998.50525	319.07962	373.95886	0.00000	0.00000	0.00000	2000.55164	264.99213	361.95551	0.00000	0.00000	0.00000	0.00000	0.00000	0.00000	0.00000	0.00000	0.00000	1883.50989	56.49572	337.01083	1856.50427	75.73946	282.89172	1878.05420	65.04122	241.77983	2014.78064	1039.62610	213.83751	1843.16443	999.62854	159.64427	1972.22192	627.25000	429.88391	0.00000	0.00000	0.00000	0.00000	0.00000	0.00000	0.00000	0.00000	0.00000	0.00000	0.00000	0.00000	1715.78711	542.40167	245.76488	1939.43469	475.69745	125.63973	0.00000	0.00000	0.00000	0.00000	0.00000	0.00000	0.00000	0.00000	0.00000	0.00000	0.00000	0.00000	1841.42505	161.13396	208.10962	0.00000	0.00000	0.00000	0.00000	0.00000	0.00000	1723.36401	85.19984	146.41992	1787.61633	76.50965	87.50175
914	3.65200	2014.31726	1049.77246	326.81860	0.00000	0.00000	0.00000	1983.74316	644.73328	394.80084	1985.49585	583.89203	385.20517	0.00000	0.00000	0.00000	0.00000	0.00000	0.00000	1976.42993	497.85709	371.05005	1973.06775	496.79913	256.87259	0.00000	0.00000	0.00000	0.00000	0.00000	0.00000	0.00000	0.00000	0.00000	1999.52722	265.31122	361.72006	0.00000	0.00000	0.00000	0.00000	0.00000	0.00000	0.00000	0.00000	0.00000	1883.40063	56.43557	336.93549	1856.37598	75.63232	282.87238	1877.81995	64.87985	241.76672	2010.36353	1039.44348	213.68877	1838.48181	999.49493	159.99548	1969.67017	627.37897	429.54727	0.00000	0.00000	0.00000	0.00000	0.00000	0.00000	0.00000	0.00000	0.00000	0.00000	0.00000	0.00000	1710.76917	542.23499	246.46802	1932.64209	475.90878	126.56941	0.00000	0.00000	0.00000	0.00000	0.00000	0.00000	0.00000	0.00000	0.00000	0.00000	0.00000	0.00000	1827.56909	158.04468	209.84578	0.00000	0.00000	0.00000	0.00000	0.00000	0.00000	1707.62683	85.33290	145.97260	1770.53088	75.37273	88.11726
915	3.65600	2010.12170	1049.42322	326.66876	0.00000	0.00000	0.00000	1981.02332	644.72308	394.61804	1982.94141	583.85425	385.01193	0.00000	0.00000	0.00000	0.00000	0.00000	0.00000	1974.20630	497.70673	370.77432	1970.79590	496.60007	256.69653	0.00000	0.00000	0.00000	2054.21411	272.21283	356.77710	0.00000	0.00000	0.00000	1998.47119	265.41693	361.47128	0.00000	0.00000	0.00000	0.00000	0.00000	0.00000	0.00000	0.00000	0.00000	1883.28577	56.32455	336.89645	0.00000	0.00000	0.00000	1877.62012	64.76961	241.77606	2005.94092	1039.16724	213.56747	1833.88342	999.25854	160.13313	1967.09253	627.35699	429.34061	0.00000	0.00000	0.00000	0.00000	0.00000	0.00000	0.00000	0.00000	0.00000	0.00000	0.00000	0.00000	1706.29248	542.16290	247.49788	1926.29248	476.52097	127.41199	0.00000	0.00000	0.00000	0.00000	0.00000	0.00000	0.00000	0.00000	0.00000	1840.62585	163.23929	133.11465	1813.25769	155.08133	208.91322	0.00000	0.00000	0.00000	0.00000	0.00000	0.00000	1692.00732	85.44807	145.92227	1755.23792	74.40663	87.79719
916	3.66000	2005.96094	1049.10303	326.49490	0.00000	0.00000	0.00000	1978.27075	644.71002	394.43573	1980.50354	583.89844	384.83713	0.00000	0.00000	0.00000	0.00000	0.00000	0.00000	1972.06836	497.54871	370.48450	1968.61914	496.38495	256.45981	0.00000	0.00000	0.00000	2053.18677	272.51419	356.49561	0.00000	0.00000	0.00000	1997.45630	265.70123	361.25754	0.00000	0.00000	0.00000	0.00000	0.00000	0.00000	1697.63696	70.06785	184.53607	1883.18567	56.22815	336.84686	1856.18506	75.34842	282.90585	1877.45520	64.66416	241.73903	2001.46924	1038.80981	213.44336	1829.26733	999.02283	160.41800	1964.48450	627.37823	429.05310	0.00000	0.00000	0.00000	0.00000	0.00000	0.00000	0.00000	0.00000	0.00000	0.00000	0.00000	0.00000	1701.44678	541.89569	248.24878	1919.55090	476.70718	128.33376	0.00000	0.00000	0.00000	0.00000	0.00000	0.00000	0.00000	0.00000	0.00000	1826.99109	160.28484	133.62125	1799.59387	153.07623	209.40707	1872.20410	113.33080	177.73724	0.00000	0.00000	0.00000	1676.19739	85.91209	145.28941	1741.10400	73.41985	86.69627
917	3.66400	2001.79700	1048.68005	326.27332	0.00000	0.00000	0.00000	1975.52148	644.68170	394.24176	1977.93176	583.84686	384.60526	0.00000	0.00000	0.00000	0.00000	0.00000	0.00000	1970.05298	497.51022	370.25354	1966.68616	496.37308	256.23810	0.00000	0.00000	0.00000	2052.36841	272.89835	356.21582	0.00000	0.00000	0.00000	1996.59631	266.00067	361.06137	0.00000	0.00000	0.00000	0.00000	0.00000	0.00000	0.00000	0.00000	0.00000	1883.18176	56.20430	336.78851	1856.08679	75.13664	282.86472	1877.26221	64.54035	241.73827	1997.08606	1038.47449	213.23543	1824.66675	998.74957	160.58517	1961.96021	627.36176	428.63916	0.00000	0.00000	0.00000	0.00000	0.00000	0.00000	0.00000	0.00000	0.00000	0.00000	0.00000	0.00000	1697.04785	541.55493	249.12633	1913.15869	477.22043	129.27054	0.00000	0.00000	0.00000	0.00000	0.00000	0.00000	0.00000	0.00000	0.00000	0.00000	0.00000	0.00000	1785.48242	150.87120	209.76021	0.00000	0.00000	0.00000	0.00000	0.00000	0.00000	1660.60022	86.68998	144.72893	1725.67542	72.50864	86.39106
918	3.66800	1997.61707	1048.22742	326.05994	0.00000	0.00000	0.00000	1972.62463	644.46228	394.05399	1975.35315	583.72131	384.37250	0.00000	0.00000	0.00000	0.00000	0.00000	0.00000	1968.00977	497.49686	370.03229	1964.83362	496.38281	256.00394	0.00000	0.00000	0.00000	2051.25317	273.00272	355.92264	0.00000	0.00000	0.00000	1995.50635	266.15244	360.79437	0.00000	0.00000	0.00000	0.00000	0.00000	0.00000	0.00000	0.00000	0.00000	1883.09192	56.06448	336.76141	1855.98962	74.93197	282.89365	1877.04761	64.40517	241.72699	1992.61426	1038.06995	213.03943	1820.07092	998.42175	160.82893	1959.28113	627.29034	428.33572	0.00000	0.00000	0.00000	0.00000	0.00000	0.00000	0.00000	0.00000	0.00000	0.00000	0.00000	0.00000	1692.64697	541.24689	250.07550	1906.35278	477.26221	130.05449	0.00000	0.00000	0.00000	0.00000	0.00000	0.00000	0.00000	0.00000	0.00000	1800.01440	154.95227	134.57260	1771.24890	148.68365	210.12970	1872.25854	124.69318	182.48529	1667.43469	70.18459	184.47142	1645.13940	87.38847	144.16913	1710.48425	72.00945	86.21183
919	3.67200	1993.40588	1047.77881	325.76929	0.00000	0.00000	0.00000	1969.79248	644.34711	393.82672	1972.80261	583.68561	384.14395	0.00000	0.00000	0.00000	0.00000	0.00000	0.00000	1965.82617	497.24634	369.74667	1962.62512	496.02353	255.74707	0.00000	0.00000	0.00000	2050.34595	273.35040	355.63373	0.00000	0.00000	0.00000	1994.53711	266.40799	360.57449	0.00000	0.00000	0.00000	1993.93005	127.30663	253.79951	0.00000	0.00000	0.00000	1883.03345	56.02736	336.74442	1855.87061	74.76962	282.88480	1876.91724	64.34267	241.72673	1988.16064	1037.61743	212.81413	1815.47485	998.05902	160.92056	1956.63599	627.21930	427.93396	0.00000	0.00000	0.00000	0.00000	0.00000	0.00000	0.00000	0.00000	0.00000	0.00000	0.00000	0.00000	1693.42517	537.43359	250.39883	1900.02454	477.69690	131.00339	0.00000	0.00000	0.00000	0.00000	0.00000	0.00000	0.00000	0.00000	0.00000	0.00000	0.00000	0.00000	1756.46387	146.35512	210.24759	1849.16797	116.25034	182.88446	1652.24512	70.94529	184.24251	1630.01428	88.84947	143.29898	1695.49072	71.59185	86.13654
920	3.67600	1989.18872	1047.29443	325.48862	0.00000	0.00000	0.00000	1966.97119	644.29724	393.67807	1970.18616	583.60571	383.90012	0.00000	0.00000	0.00000	0.00000	0.00000	0.00000	1963.62500	497.03232	369.46381	1960.59045	495.79907	255.49089	0.00000	0.00000	0.00000	2049.27100	273.55655	355.30276	0.00000	0.00000	0.00000	1993.54492	266.68210	360.31741	0.00000	0.00000	0.00000	0.00000	0.00000	0.00000	0.00000	0.00000	0.00000	1883.02246	56.01809	336.74591	1855.75745	74.61717	282.84177	1876.78101	64.29330	241.71483	1983.70398	1037.09875	212.56735	1810.85852	997.66864	161.08203	1953.98901	627.14117	427.56046	0.00000	0.00000	0.00000	0.00000	0.00000	0.00000	0.00000	0.00000	0.00000	0.00000	0.00000	0.00000	1689.00037	536.97870	251.03851	1893.32703	477.81787	131.88091	0.00000	0.00000	0.00000	0.00000	0.00000	0.00000	0.00000	0.00000	0.00000	0.00000	0.00000	0.00000	1742.38013	144.64812	210.59294	0.00000	0.00000	0.00000	0.00000	0.00000	0.00000	1615.05762	90.03656	142.75690	1680.50562	71.34880	86.04266
